<?xml version="1.0" encoding="utf-8"?>
<!-- Svg Vector Icons : http://www.onlinewebfonts.com/icon -->
<!DOCTYPE svg PUBLIC "-//W3C//DTD SVG 1.1//EN" "http://www.w3.org/Graphics/SVG/1.1/DTD/svg11.dtd">
<svg version="1.1" xmlns="http://www.w3.org/2000/svg" xmlns:xlink="http://www.w3.org/1999/xlink" x="0px" y="0px" viewBox="0 0 1000 1000" enable-background="new 0 0 1000 1000" xml:space="preserve">
<metadata> Svg Vector Icons : http://www.onlinewebfonts.com/icon </metadata>
<g>
    <g transform="translate(0.000000,511.000000) scale(0.100000,-0.100000)">
        <path fill="#311" d="M1939.8,4971.7c-262-70.4-477.7-255.4-603.2-515.2l-68.3-143.1V1493.3v-2818l81.5-165.1c101.3-204.7,246.6-347.8,453.5-444.7l147.5-70.4l691.3-11l691.3-11l827.8-1380.4C4616.9-4167,4993.4-4790,5000-4790s383.1,623,838.8,1382.6L6664.4-2027l693.5,11l693.5,11l165.1,81.5c204.8,101.3,347.9,246.6,444.7,453.5l70.4,147.5v2818v2818l-68.2,143.1c-127.7,264.2-343.5,446.9-614.2,517.4C7857.6,5022.4,2127,5022.4,1939.8,4971.7z" />
        <path fill="white" d="M4121.6,2684.3c-151.9-79.3-284-151.9-292.8-160.7c-8.8-8.8,83.7-83.7,207-162.9c125.5-79.2,400.7-257.6,614.2-396.3l389.7-253.2l-473.3-211.3l-471.1-209.2l-409.5,184.9l-407.3,184.9l-295-169.5c-162.9-94.7-286.2-176.1-277.4-184.9c8.8-8.8,354.5-184.9,766.2-391.9L4225,537.8L4650,735.9c233.4,107.9,427.1,193.7,431.5,189.3c6.6-4.4-559.2-1481.6-581.2-1516.9c-19.8-33,640.7,317,675.9,358.9c19.8,19.8,220.2,376.5,449.1,794.8l413.9,757.3l552.6,242.2c303.8,134.3,581.2,266.4,618.7,297.2c125.5,105.7,160.7,303.8,79.2,462.3c-61.6,118.9-158.5,182.7-301.6,193.7c-114.5,8.8-147.5-2.2-700.1-248.8l-579-257.6l-631.9,400.7c-347.8,220.2-642.9,402.9-656.1,407.3C4405.6,2823,4271.3,2761.4,4121.6,2684.3z"/>
    </g>
</g>
</svg>