<?xml version="1.0" encoding="utf-8"?>
<!-- Svg Vector Icons : http://www.onlinewebfonts.com/icon -->
<!DOCTYPE svg PUBLIC "-//W3C//DTD SVG 1.1//EN" "http://www.w3.org/Graphics/SVG/1.1/DTD/svg11.dtd">
<svg version="1.1" xmlns="http://www.w3.org/2000/svg" xmlns:xlink="http://www.w3.org/1999/xlink" x="0px" y="0px" viewBox="0 0 1000 1000" enable-background="new 0 0 1000 1000" xml:space="preserve">
<metadata> Svg Vector Icons : http://www.onlinewebfonts.com/icon </metadata>
<g>
    <g transform="translate(0.000000,512.000000) scale(0.100000,-0.100000)">
        <path fill="#94b" d="M4664.8,4999.5c-742.8-95.7-1422.5-511.2-1845.6-1127.7C2445.9,3328.1,2296.5,2727,2367.4,2053c86.2-825.2,296.8-1323,1049.2-2477.4c375.3-576.3,534.2-846.2,721.8-1227.2c411.6-836.7,616.5-1658,643.3-2584.6c13.4-396.3,26.8-457.6,111-509.3c74.7-46,139.8-46,214.4,0c84.2,51.7,97.7,112.9,111,509.3c28.7,947.7,247,1809.2,673.9,2651.7c166.6,331.2,338.9,620.3,739,1234.9c486.3,750.5,675.8,1106.6,821.3,1541.2c99.6,300.6,143.6,501.6,180,852c70.8,664.4-76.6,1275.1-434.6,1807.3C6640.7,4674,5648.9,5124,4664.8,4999.5z" />
        <path fill="white" d="M5317.7,3333.9c206.8-65.1,432.7-241.2,551.4-432.7c26.8-46,72.8-149.3,99.6-229.7c44.1-132.1,49.8-172.3,42.1-340.8c-13.4-285.3-101.5-492-289.1-681.6C5264.1,1189.6,4509.8,1270,4146,1813.7c-95.7,143.6-145.5,300.6-157,488.2c-9.6,201,17.2,337,99.6,509.3C4308.7,3268.8,4821.8,3487,5317.7,3333.9z" />
    </g>
</g>
</svg>